<?xml version="1.0" encoding="UTF-8" standalone="no"?>
<svg
   xmlns:dc="http://purl.org/dc/elements/1.1/"
   xmlns:cc="http://creativecommons.org/ns#"
   xmlns:rdf="http://www.w3.org/1999/02/22-rdf-syntax-ns#"
   xmlns:svg="http://www.w3.org/2000/svg"
   xmlns="http://www.w3.org/2000/svg"
   xmlns:sodipodi="http://sodipodi.sourceforge.net/DTD/sodipodi-0.dtd"
   xmlns:inkscape="http://www.inkscape.org/namespaces/inkscape"
   viewBox="0 0 793.69147 198.8932"
   height="198.8932"
   width="793.69147"
   xml:space="preserve"
   id="svg2"
   version="1.1"
   inkscape:version="0.48.4 r9939"
   sodipodi:docname="omen_logo.svg"><sodipodi:namedview
     pagecolor="#ffffff"
     bordercolor="#666666"
     borderopacity="1"
     objecttolerance="10"
     gridtolerance="10"
     guidetolerance="10"
     inkscape:pageopacity="0"
     inkscape:pageshadow="2"
     inkscape:window-width="1366"
     inkscape:window-height="744"
     id="namedview20"
     showgrid="false"
     fit-margin-top="0"
     fit-margin-left="0"
     fit-margin-right="0"
     fit-margin-bottom="0"
     inkscape:zoom="0.59970176"
     inkscape:cx="784.45457"
     inkscape:cy="-49.89897"
     inkscape:window-x="0"
     inkscape:window-y="24"
     inkscape:window-maximized="1"
     inkscape:current-layer="svg2" /><metadata
     id="metadata8"><rdf:RDF><cc:Work
         rdf:about=""><dc:format>image/svg+xml</dc:format><dc:type
           rdf:resource="http://purl.org/dc/dcmitype/StillImage" /><dc:title></dc:title></cc:Work></rdf:RDF></metadata><defs
     id="defs6"><clipPath
       id="clipPath18"
       clipPathUnits="userSpaceOnUse"><path
         id="path16"
         d="M 0,376 H 595.28 V 0 H 0 z"
         inkscape:connector-curvature="0" /></clipPath></defs><g
     id="g12"
     transform="matrix(2.55062,0,0,-2.55062,-324.64495,567.03924)"><g
       id="g14"
       clip-path="url(#clipPath18)"><g
         id="g20"
         transform="translate(284.6335,145.5303)"><path
           inkscape:connector-curvature="0"
           d="m 0,0 h -12.542 c -0.393,0 -0.712,0.318 -0.712,0.711 v 25.341 c 0,0.703 -0.91,0.98 -1.301,0.396 l -18.36,-27.367 h -0.735 l -18.358,27.367 c -0.392,0.584 -1.302,0.306 -1.302,-0.396 V 0.711 C -53.31,0.318 -53.629,0 -54.021,0 h -12.635 c -0.393,0 -0.711,0.318 -0.711,0.711 v 68.01 H -67 l 33.137,-46.77 c 0.284,-0.4 0.878,-0.4 1.161,0.001 L 0.343,68.721 H 0.711 V 0.711 C 0.711,0.318 0.393,0 0,0"
           style="fill:#69b42d;fill-opacity:1;fill-rule:nonzero;stroke:none"
           id="path22" /></g><g
         id="g24"
         transform="translate(357.1262,200.2861)"><path
           inkscape:connector-curvature="0"
           d="m 0,0 h -25.434 c -1.146,0 -2.075,-0.929 -2.075,-2.074 v -10.459 c 0,-1.146 0.929,-2.074 2.075,-2.074 h 21.483 c 1.145,0 2.074,-0.929 2.074,-2.075 v -7.703 c 0,-1.145 -0.929,-2.074 -2.074,-2.074 h -21.483 c -1.146,0 -2.075,-0.929 -2.075,-2.074 v -11.378 c 0,-1.146 0.929,-2.074 2.075,-2.074 H 0.734 c 1.146,0 2.075,-0.929 2.075,-2.075 v -8.622 c 0,-1.145 -0.929,-2.074 -2.075,-2.074 h -40.225 c -1.146,0 -2.074,0.929 -2.074,2.074 v 63.379 c 0,1.146 0.928,2.074 2.074,2.074 H 0 c 1.146,0 2.074,-0.928 2.074,-2.074 V 2.074 C 2.074,0.929 1.146,0 0,0"
           style="fill:#004679;fill-opacity:1;fill-rule:nonzero;stroke:none"
           id="path26" /></g><g
         id="g28"
         transform="translate(438.4567,144.3359)"><path
           inkscape:connector-curvature="0"
           d="m 0,0 h -0.367 l -37.885,36.924 c -0.742,0.723 -1.988,0.198 -1.988,-0.839 V 2.366 c 0,-0.647 -0.525,-1.172 -1.171,-1.172 h -11.715 c -0.647,0 -1.171,0.525 -1.171,1.172 v 67.549 h 0.367 l 37.885,-36.924 c 0.742,-0.723 1.988,-0.197 1.988,0.839 v 33.72 c 0,0.647 0.525,1.172 1.172,1.172 H -1.171 C -0.524,68.722 0,68.197 0,67.55 z"
           style="fill:#004679;fill-opacity:1;fill-rule:nonzero;stroke:none"
           id="path30" /></g><g
         id="g32"
         transform="translate(178.3958,183.3666)"><path
           inkscape:connector-curvature="0"
           d="m 0,0 c -1.386,1.485 -3.831,2.796 -8.125,2.125 -5.035,-0.786 -8.792,-5.024 -11.583,-5.667 -2.838,-0.653 -4.896,1.709 -3.086,3.961 0.602,0.75 4.208,3.351 7.325,7.018 3.188,3.751 3.992,7.183 4.094,10.088 0.102,2.905 2.293,5.045 2.293,8.765 0,3.721 -2.96,11.099 -3.775,12.079 -0.632,0.759 -3.743,0.782 -4.364,0.006 -0.841,-1.051 -3.304,-7.192 -3.202,-11.881 0.102,-4.688 2.243,-5.86 2.09,-9.275 -0.153,-3.414 -3.875,-5.469 -8.5,-10.427 -4.147,-4.446 -5.375,-9.5 -1.875,-14.292 3.059,-4.188 8.283,-4.671 12.708,-3.281 3.781,1.187 5.484,3.009 8,4.094 2.417,1.041 3.967,-0.898 2.042,-3.398 -2.792,-3.625 -7.486,-6.833 -13.75,-6.833 -12.37,0 -15.859,8.766 -16.415,11.723 -0.258,1.598 -0.306,3.368 -0.306,4.118 0,11.001 5.647,16.203 14.749,18.54 -1.16,3.839 -2.07,13.25 -0.889,15.979 -16.48,-2.892 -28.546,-16.511 -28.546,-34.489 0,-2.298 0.157,-7.875 1.823,-12.427 0.413,-1.129 2.02,-3.542 2.729,-4.292 7.021,-7.422 20.832,-8.094 27.021,-7.611 4.648,0.363 8.581,1.311 12.23,3.283 5.895,3.188 9.062,7.552 9.937,12.719 C 3.147,-6.294 2.188,-2.344 0,0"
           style="fill:#69b42d;fill-opacity:1;fill-rule:nonzero;stroke:none"
           id="path34" /></g><g
         id="g36"
         transform="translate(197.0176,180.1839)"><path
           inkscape:connector-curvature="0"
           d="m 0,0 c 0,17.197 -10.686,30.417 -26.012,34.063 1.267,-4.022 1.322,-8.524 0.484,-13.663 7.525,-3.185 10.814,-10.526 12.033,-20.401 0.379,-3.07 0.476,-5.822 0.214,-8.762 -0.584,-6.568 -6.272,-15.594 -18.967,-18.514 -15.632,-3.596 -25.434,3.143 -27.829,3.696 -6.052,1.398 -0.719,-7.831 17.683,-9.975 6.865,-0.799 15.13,-0.119 18.794,1.067 13.35,4.319 22.002,10.491 23.417,25.644 C 0.01,-4.788 0,-2.178 0,0"
           style="fill:#69b42d;fill-opacity:1;fill-rule:nonzero;stroke:none"
           id="path38" /></g></g></g></svg>